<?xml version="1.0" encoding="UTF-8"?>
<svg xmlns="http://www.w3.org/2000/svg" xmlns:xlink="http://www.w3.org/1999/xlink" width="1920pt" height="1080pt" viewBox="0 0 1920 1080" version="1.1">
<defs>
<g>
<symbol overflow="visible" id="glyph0-0">
<path style="stroke:none;" d="M 1.46875 0 L 1.46875 -11.109375 L 7.859375 -11.109375 L 7.859375 0 Z M 2.25 -0.796875 L 7.0625 -0.796875 L 7.0625 -10.3125 L 2.25 -10.3125 Z "/>
</symbol>
<symbol overflow="visible" id="glyph0-1">
<path style="stroke:none;" d="M 2.328125 0 L 2.328125 -0.65625 L 2.6875 -0.65625 C 3.03125 -0.65625 3.328125 -0.710938 3.578125 -0.828125 C 3.835938 -0.953125 3.96875 -1.242188 3.96875 -1.703125 L 3.96875 -10.328125 L 2.46875 -10.328125 C 2.019531 -10.328125 1.707031 -10.203125 1.53125 -9.953125 C 1.351562 -9.703125 1.242188 -9.40625 1.203125 -9.0625 L 1.125 -8.390625 L 0.3125 -8.390625 L 0.390625 -11.109375 L 9.15625 -11.109375 L 9.234375 -8.390625 L 8.421875 -8.390625 L 8.34375 -9.0625 C 8.300781 -9.40625 8.191406 -9.703125 8.015625 -9.953125 C 7.835938 -10.203125 7.515625 -10.328125 7.046875 -10.328125 L 5.546875 -10.328125 L 5.546875 -1.78125 C 5.546875 -1.289062 5.664062 -0.976562 5.90625 -0.84375 C 6.15625 -0.71875 6.457031 -0.65625 6.8125 -0.65625 L 7.171875 -0.65625 L 7.171875 0 Z "/>
</symbol>
<symbol overflow="visible" id="glyph0-2">
<path style="stroke:none;" d="M 0.59375 0 L 0.59375 -0.65625 L 0.796875 -0.65625 C 1.148438 -0.65625 1.445312 -0.71875 1.6875 -0.84375 C 1.9375 -0.976562 2.0625 -1.289062 2.0625 -1.78125 L 2.0625 -9.40625 C 2.0625 -9.851562 1.9375 -10.140625 1.6875 -10.265625 C 1.4375 -10.390625 1.140625 -10.453125 0.796875 -10.453125 L 0.59375 -10.453125 L 0.59375 -11.109375 L 5.125 -11.109375 L 5.125 -10.453125 L 4.921875 -10.453125 C 4.566406 -10.453125 4.265625 -10.382812 4.015625 -10.25 C 3.765625 -10.125 3.640625 -9.820312 3.640625 -9.34375 L 3.640625 -6.1875 L 8.703125 -6.1875 L 8.703125 -9.34375 C 8.703125 -9.820312 8.578125 -10.125 8.328125 -10.25 C 8.078125 -10.382812 7.773438 -10.453125 7.421875 -10.453125 L 7.21875 -10.453125 L 7.21875 -11.109375 L 11.75 -11.109375 L 11.75 -10.453125 L 11.546875 -10.453125 C 11.191406 -10.453125 10.890625 -10.382812 10.640625 -10.25 C 10.390625 -10.125 10.265625 -9.820312 10.265625 -9.34375 L 10.265625 -1.703125 C 10.265625 -1.242188 10.390625 -0.953125 10.640625 -0.828125 C 10.898438 -0.710938 11.203125 -0.65625 11.546875 -0.65625 L 11.75 -0.65625 L 11.75 0 L 7.21875 0 L 7.21875 -0.65625 L 7.421875 -0.65625 C 7.773438 -0.65625 8.078125 -0.71875 8.328125 -0.84375 C 8.578125 -0.976562 8.703125 -1.289062 8.703125 -1.78125 L 8.703125 -5.421875 L 3.640625 -5.421875 L 3.640625 -1.78125 C 3.640625 -1.289062 3.765625 -0.976562 4.015625 -0.84375 C 4.265625 -0.71875 4.566406 -0.65625 4.921875 -0.65625 L 5.125 -0.65625 L 5.125 0 Z "/>
</symbol>
<symbol overflow="visible" id="glyph0-3">
<path style="stroke:none;" d="M 0.59375 0 L 0.59375 -0.65625 L 0.796875 -0.65625 C 1.140625 -0.65625 1.4375 -0.710938 1.6875 -0.828125 C 1.9375 -0.953125 2.0625 -1.242188 2.0625 -1.703125 L 2.0625 -9.34375 C 2.0625 -9.820312 1.9375 -10.125 1.6875 -10.25 C 1.445312 -10.382812 1.148438 -10.453125 0.796875 -10.453125 L 0.59375 -10.453125 L 0.59375 -11.109375 L 8.4375 -11.109375 L 8.515625 -8.390625 L 7.703125 -8.390625 L 7.625 -9.0625 C 7.582031 -9.40625 7.457031 -9.703125 7.25 -9.953125 C 7.050781 -10.203125 6.71875 -10.328125 6.25 -10.328125 L 3.640625 -10.328125 L 3.640625 -6.1875 L 7.390625 -6.1875 L 7.390625 -5.4375 L 3.640625 -5.4375 L 3.640625 -0.78125 L 6.640625 -0.78125 C 7.128906 -0.78125 7.484375 -0.90625 7.703125 -1.15625 C 7.929688 -1.414062 8.070312 -1.710938 8.125 -2.046875 L 8.234375 -2.71875 L 9.046875 -2.71875 L 8.9375 0 Z "/>
</symbol>
<symbol overflow="visible" id="glyph0-4">
<path style="stroke:none;" d=""/>
</symbol>
<symbol overflow="visible" id="glyph0-5">
<path style="stroke:none;" d="M 6.234375 0.15625 C 5.035156 0.15625 4.035156 -0.0820312 3.234375 -0.5625 C 2.441406 -1.039062 1.851562 -1.707031 1.46875 -2.5625 C 1.082031 -3.414062 0.890625 -4.421875 0.890625 -5.578125 C 0.890625 -6.691406 1.09375 -7.675781 1.5 -8.53125 C 1.90625 -9.382812 2.515625 -10.050781 3.328125 -10.53125 C 4.140625 -11.019531 5.140625 -11.265625 6.328125 -11.265625 C 7.484375 -11.265625 8.34375 -11.097656 8.90625 -10.765625 C 9.476562 -10.429688 9.765625 -10.019531 9.765625 -9.53125 C 9.765625 -9.195312 9.625 -8.929688 9.34375 -8.734375 C 9.070312 -8.535156 8.734375 -8.4375 8.328125 -8.4375 C 8.328125 -8.757812 8.257812 -9.070312 8.125 -9.375 C 8 -9.675781 7.785156 -9.925781 7.484375 -10.125 C 7.179688 -10.332031 6.773438 -10.4375 6.265625 -10.4375 C 4.953125 -10.4375 4.015625 -10.015625 3.453125 -9.171875 C 2.890625 -8.328125 2.609375 -7.128906 2.609375 -5.578125 C 2.609375 -4.015625 2.898438 -2.816406 3.484375 -1.984375 C 4.078125 -1.148438 5.078125 -0.734375 6.484375 -0.734375 C 6.785156 -0.734375 7.078125 -0.75 7.359375 -0.78125 C 7.640625 -0.8125 7.890625 -0.859375 8.109375 -0.921875 L 8.109375 -3.421875 C 8.109375 -3.878906 7.976562 -4.171875 7.71875 -4.296875 C 7.46875 -4.421875 7.171875 -4.484375 6.828125 -4.484375 L 6.765625 -4.484375 L 6.765625 -5.140625 L 10.8125 -5.140625 L 10.8125 -4.484375 L 10.75 -4.484375 C 10.457031 -4.484375 10.207031 -4.414062 10 -4.28125 C 9.789062 -4.15625 9.6875 -3.847656 9.6875 -3.359375 L 9.6875 -0.5625 C 9.164062 -0.320312 8.628906 -0.140625 8.078125 -0.015625 C 7.523438 0.0976562 6.910156 0.15625 6.234375 0.15625 Z "/>
</symbol>
<symbol overflow="visible" id="glyph0-6">
<path style="stroke:none;" d="M 5.78125 0.15625 C 4.675781 0.15625 3.757812 -0.0820312 3.03125 -0.5625 C 2.3125 -1.039062 1.769531 -1.707031 1.40625 -2.5625 C 1.050781 -3.425781 0.875 -4.4375 0.875 -5.59375 C 0.875 -6.738281 1.050781 -7.734375 1.40625 -8.578125 C 1.769531 -9.429688 2.316406 -10.09375 3.046875 -10.5625 C 3.773438 -11.039062 4.691406 -11.28125 5.796875 -11.28125 C 6.835938 -11.28125 7.71875 -11.039062 8.4375 -10.5625 C 9.164062 -10.09375 9.71875 -9.429688 10.09375 -8.578125 C 10.46875 -7.722656 10.65625 -6.722656 10.65625 -5.578125 C 10.65625 -4.421875 10.46875 -3.414062 10.09375 -2.5625 C 9.71875 -1.707031 9.164062 -1.039062 8.4375 -0.5625 C 7.707031 -0.0820312 6.820312 0.15625 5.78125 0.15625 Z M 5.78125 -0.6875 C 6.9375 -0.6875 7.75 -1.113281 8.21875 -1.96875 C 8.695312 -2.832031 8.9375 -4.035156 8.9375 -5.578125 C 8.9375 -7.117188 8.695312 -8.3125 8.21875 -9.15625 C 7.75 -10.007812 6.941406 -10.4375 5.796875 -10.4375 C 4.628906 -10.4375 3.800781 -10.007812 3.3125 -9.15625 C 2.832031 -8.3125 2.59375 -7.117188 2.59375 -5.578125 C 2.59375 -4.035156 2.832031 -2.832031 3.3125 -1.96875 C 3.800781 -1.113281 4.625 -0.6875 5.78125 -0.6875 Z "/>
</symbol>
<symbol overflow="visible" id="glyph0-7">
<path style="stroke:none;" d="M 0.59375 0 L 0.59375 -0.65625 L 0.796875 -0.65625 C 1.140625 -0.65625 1.4375 -0.710938 1.6875 -0.828125 C 1.9375 -0.953125 2.0625 -1.242188 2.0625 -1.703125 L 2.0625 -9.40625 C 2.0625 -9.851562 1.9375 -10.140625 1.6875 -10.265625 C 1.4375 -10.390625 1.140625 -10.453125 0.796875 -10.453125 L 0.59375 -10.453125 L 0.59375 -11.109375 L 4.140625 -11.109375 L 7.359375 -2.203125 L 10.546875 -11.109375 L 14 -11.109375 L 14 -10.453125 L 13.796875 -10.453125 C 13.453125 -10.453125 13.15625 -10.382812 12.90625 -10.25 C 12.65625 -10.125 12.53125 -9.820312 12.53125 -9.34375 L 12.53125 -1.78125 C 12.53125 -1.289062 12.65625 -0.976562 12.90625 -0.84375 C 13.15625 -0.71875 13.453125 -0.65625 13.796875 -0.65625 L 14 -0.65625 L 14 0 L 9.859375 0 L 9.859375 -0.65625 L 9.90625 -0.65625 C 10.238281 -0.65625 10.503906 -0.710938 10.703125 -0.828125 C 10.898438 -0.941406 11.007812 -1.210938 11.03125 -1.640625 L 11.03125 -9.9375 L 7.46875 0 L 6.625 0 L 3.015625 -9.90625 L 3.015625 -1.78125 C 3.015625 -1.289062 3.113281 -0.976562 3.3125 -0.84375 C 3.507812 -0.71875 3.785156 -0.65625 4.140625 -0.65625 L 4.1875 -0.65625 L 4.1875 0 Z "/>
</symbol>
<symbol overflow="visible" id="glyph0-8">
<path style="stroke:none;" d="M 0.59375 0 L 0.59375 -0.65625 L 0.796875 -0.65625 C 1.140625 -0.65625 1.4375 -0.710938 1.6875 -0.828125 C 1.9375 -0.953125 2.0625 -1.242188 2.0625 -1.703125 L 2.0625 -9.40625 C 2.0625 -9.851562 1.9375 -10.140625 1.6875 -10.265625 C 1.4375 -10.390625 1.140625 -10.453125 0.796875 -10.453125 L 0.59375 -10.453125 L 0.59375 -11.109375 L 4.78125 -11.109375 C 7.445312 -11.109375 8.78125 -10.109375 8.78125 -8.109375 C 8.78125 -7.554688 8.664062 -7.085938 8.4375 -6.703125 C 8.207031 -6.328125 7.914062 -6.023438 7.5625 -5.796875 C 7.21875 -5.578125 6.859375 -5.40625 6.484375 -5.28125 L 8.625 -1.90625 C 8.894531 -1.488281 9.148438 -1.175781 9.390625 -0.96875 C 9.640625 -0.757812 9.925781 -0.65625 10.25 -0.65625 L 10.296875 -0.65625 L 10.296875 0 L 10.078125 0 C 9.441406 0 8.941406 -0.03125 8.578125 -0.09375 C 8.222656 -0.164062 7.9375 -0.300781 7.71875 -0.5 C 7.5 -0.707031 7.269531 -1.007812 7.03125 -1.40625 L 4.9375 -4.90625 L 3.640625 -4.90625 L 3.640625 -1.703125 C 3.640625 -1.242188 3.765625 -0.953125 4.015625 -0.828125 C 4.273438 -0.710938 4.578125 -0.65625 4.921875 -0.65625 L 5.125 -0.65625 L 5.125 0 Z M 4.734375 -5.640625 C 5.640625 -5.640625 6.257812 -5.835938 6.59375 -6.234375 C 6.9375 -6.640625 7.109375 -7.25 7.109375 -8.0625 C 7.109375 -8.894531 6.925781 -9.484375 6.5625 -9.828125 C 6.195312 -10.179688 5.578125 -10.359375 4.703125 -10.359375 L 3.640625 -10.359375 L 3.640625 -5.640625 Z "/>
</symbol>
<symbol overflow="visible" id="glyph0-9">
<path style="stroke:none;" d="M 2.46875 0 L 2.46875 -0.65625 L 2.828125 -0.65625 C 3.171875 -0.65625 3.46875 -0.710938 3.71875 -0.828125 C 3.976562 -0.953125 4.109375 -1.242188 4.109375 -1.703125 L 4.109375 -4.640625 L 1.234375 -9.640625 C 1.066406 -9.929688 0.90625 -10.140625 0.75 -10.265625 C 0.601562 -10.390625 0.394531 -10.453125 0.125 -10.453125 L -0.078125 -10.453125 L -0.078125 -11.109375 L 4.203125 -11.109375 L 4.203125 -10.453125 L 3.625 -10.453125 C 3.34375 -10.453125 3.15625 -10.398438 3.0625 -10.296875 C 2.976562 -10.203125 2.9375 -10.085938 2.9375 -9.953125 C 2.9375 -9.804688 2.96875 -9.660156 3.03125 -9.515625 C 3.09375 -9.378906 3.15625 -9.253906 3.21875 -9.140625 L 4.375 -7.046875 C 4.550781 -6.722656 4.703125 -6.40625 4.828125 -6.09375 C 4.960938 -5.789062 5.070312 -5.519531 5.15625 -5.28125 C 5.25 -5.5 5.382812 -5.765625 5.5625 -6.078125 C 5.738281 -6.398438 5.910156 -6.722656 6.078125 -7.046875 L 7.078125 -8.84375 C 7.179688 -9.019531 7.253906 -9.1875 7.296875 -9.34375 C 7.335938 -9.507812 7.359375 -9.648438 7.359375 -9.765625 C 7.359375 -10.222656 7.046875 -10.453125 6.421875 -10.453125 L 5.96875 -10.453125 L 5.96875 -11.109375 L 9.765625 -11.109375 L 9.765625 -10.453125 L 9.59375 -10.453125 C 9.375 -10.453125 9.171875 -10.363281 8.984375 -10.1875 C 8.796875 -10.019531 8.566406 -9.707031 8.296875 -9.25 L 5.6875 -4.640625 L 5.6875 -1.78125 C 5.6875 -1.289062 5.804688 -0.976562 6.046875 -0.84375 C 6.296875 -0.71875 6.597656 -0.65625 6.953125 -0.65625 L 7.3125 -0.65625 L 7.3125 0 Z "/>
</symbol>
</g>
</defs>
<g id="surface1">
<g style="fill:rgb(100%,100%,100%);fill-opacity:1;">
  <use xlink:href="#glyph0-1" x="30" y="36.628906"/>
  <use xlink:href="#glyph0-2" x="40" y="36.628906"/>
  <use xlink:href="#glyph0-3" x="52" y="36.628906"/>
  <use xlink:href="#glyph0-4" x="62" y="36.628906"/>
  <use xlink:href="#glyph0-5" x="66" y="36.628906"/>
  <use xlink:href="#glyph0-3" x="77" y="36.628906"/>
  <use xlink:href="#glyph0-6" x="87" y="36.628906"/>
  <use xlink:href="#glyph0-7" x="99" y="36.628906"/>
  <use xlink:href="#glyph0-3" x="114" y="36.628906"/>
  <use xlink:href="#glyph0-1" x="124" y="36.628906"/>
  <use xlink:href="#glyph0-8" x="134" y="36.628906"/>
  <use xlink:href="#glyph0-9" x="144" y="36.628906"/>
</g>
</g>
</svg>
