<?xml version="1.0" encoding="UTF-8"?>
<svg xmlns="http://www.w3.org/2000/svg" xmlns:xlink="http://www.w3.org/1999/xlink" width="1920pt" height="1080pt" viewBox="0 0 1920 1080" version="1.1">
<defs>
<g>
<symbol overflow="visible" id="glyph0-0">
<path style="stroke:none;" d="M 0.390625 0 L 0.390625 -2.984375 L 2.109375 -2.984375 L 2.109375 0 Z M 0.609375 -0.21875 L 1.890625 -0.21875 L 1.890625 -2.765625 L 0.609375 -2.765625 Z "/>
</symbol>
<symbol overflow="visible" id="glyph0-1">
<path style="stroke:none;" d="M 0.15625 0 L 0.15625 -0.171875 L 0.21875 -0.171875 C 0.300781 -0.171875 0.378906 -0.1875 0.453125 -0.21875 C 0.523438 -0.25 0.5625 -0.328125 0.5625 -0.453125 L 0.5625 -2.515625 C 0.5625 -2.640625 0.523438 -2.71875 0.453125 -2.75 C 0.378906 -2.78125 0.300781 -2.796875 0.21875 -2.796875 L 0.15625 -2.796875 L 0.15625 -2.984375 L 1.109375 -2.984375 L 1.96875 -0.59375 L 2.828125 -2.984375 L 3.75 -2.984375 L 3.75 -2.796875 L 3.703125 -2.796875 C 3.609375 -2.796875 3.523438 -2.78125 3.453125 -2.75 C 3.390625 -2.71875 3.359375 -2.632812 3.359375 -2.5 L 3.359375 -0.46875 C 3.359375 -0.34375 3.390625 -0.257812 3.453125 -0.21875 C 3.523438 -0.1875 3.609375 -0.171875 3.703125 -0.171875 L 3.75 -0.171875 L 3.75 0 L 2.640625 0 L 2.640625 -0.171875 L 2.65625 -0.171875 C 2.75 -0.171875 2.820312 -0.1875 2.875 -0.21875 C 2.925781 -0.25 2.953125 -0.320312 2.953125 -0.4375 L 2.953125 -2.671875 L 2 0 L 1.78125 0 L 0.8125 -2.65625 L 0.8125 -0.46875 C 0.8125 -0.34375 0.835938 -0.257812 0.890625 -0.21875 C 0.941406 -0.1875 1.015625 -0.171875 1.109375 -0.171875 L 1.125 -0.171875 L 1.125 0 Z "/>
</symbol>
<symbol overflow="visible" id="glyph0-2">
<path style="stroke:none;" d="M 0.859375 0.046875 C 0.671875 0.046875 0.515625 -0.00390625 0.390625 -0.109375 C 0.265625 -0.222656 0.203125 -0.394531 0.203125 -0.625 C 0.203125 -0.84375 0.28125 -1.003906 0.4375 -1.109375 C 0.601562 -1.222656 0.84375 -1.285156 1.15625 -1.296875 L 1.5 -1.3125 L 1.5 -1.5625 C 1.5 -1.65625 1.488281 -1.738281 1.46875 -1.8125 C 1.457031 -1.894531 1.425781 -1.957031 1.375 -2 C 1.320312 -2.039062 1.238281 -2.0625 1.125 -2.0625 C 1.007812 -2.0625 0.925781 -2.039062 0.875 -2 C 0.820312 -1.96875 0.785156 -1.914062 0.765625 -1.84375 C 0.742188 -1.78125 0.734375 -1.703125 0.734375 -1.609375 C 0.617188 -1.609375 0.53125 -1.628906 0.46875 -1.671875 C 0.414062 -1.710938 0.390625 -1.78125 0.390625 -1.875 C 0.390625 -1.96875 0.421875 -2.046875 0.484375 -2.109375 C 0.554688 -2.171875 0.648438 -2.210938 0.765625 -2.234375 C 0.878906 -2.265625 1.003906 -2.28125 1.140625 -2.28125 C 1.390625 -2.28125 1.578125 -2.222656 1.703125 -2.109375 C 1.828125 -2.003906 1.890625 -1.820312 1.890625 -1.5625 L 1.890625 -0.46875 C 1.890625 -0.351562 1.910156 -0.273438 1.953125 -0.234375 C 1.992188 -0.191406 2.0625 -0.171875 2.15625 -0.171875 L 2.171875 -0.171875 L 2.171875 0 L 1.609375 0 L 1.546875 -0.359375 L 1.5 -0.359375 C 1.445312 -0.273438 1.390625 -0.203125 1.328125 -0.140625 C 1.273438 -0.0859375 1.210938 -0.0390625 1.140625 0 C 1.066406 0.03125 0.972656 0.046875 0.859375 0.046875 Z M 0.953125 -0.21875 C 1.117188 -0.21875 1.25 -0.269531 1.34375 -0.375 C 1.445312 -0.476562 1.5 -0.617188 1.5 -0.796875 L 1.5 -1.140625 L 1.234375 -1.125 C 1.003906 -1.113281 0.84375 -1.0625 0.75 -0.96875 C 0.65625 -0.882812 0.609375 -0.765625 0.609375 -0.609375 C 0.609375 -0.347656 0.722656 -0.21875 0.953125 -0.21875 Z "/>
</symbol>
<symbol overflow="visible" id="glyph0-3">
<path style="stroke:none;" d="M 1 0.046875 C 0.789062 0.046875 0.632812 0 0.53125 -0.09375 C 0.4375 -0.195312 0.390625 -0.367188 0.390625 -0.609375 L 0.390625 -2 L 0.078125 -2 L 0.078125 -2.171875 C 0.128906 -2.171875 0.1875 -2.179688 0.25 -2.203125 C 0.3125 -2.222656 0.363281 -2.253906 0.40625 -2.296875 C 0.445312 -2.347656 0.484375 -2.410156 0.515625 -2.484375 C 0.546875 -2.554688 0.570312 -2.644531 0.59375 -2.75 L 0.78125 -2.75 L 0.78125 -2.234375 L 1.328125 -2.234375 L 1.328125 -2 L 0.78125 -2 L 0.78125 -0.59375 C 0.78125 -0.445312 0.8125 -0.335938 0.875 -0.265625 C 0.9375 -0.203125 1.015625 -0.171875 1.109375 -0.171875 C 1.160156 -0.171875 1.207031 -0.175781 1.25 -0.1875 C 1.289062 -0.195312 1.332031 -0.203125 1.375 -0.203125 L 1.375 -0.03125 C 1.332031 -0.0078125 1.273438 0.00390625 1.203125 0.015625 C 1.128906 0.0351562 1.0625 0.046875 1 0.046875 Z "/>
</symbol>
<symbol overflow="visible" id="glyph0-4">
<path style="stroke:none;" d="M 1.1875 0.046875 C 1 0.046875 0.832031 0.0078125 0.6875 -0.0625 C 0.539062 -0.144531 0.425781 -0.269531 0.34375 -0.4375 C 0.269531 -0.613281 0.234375 -0.835938 0.234375 -1.109375 C 0.234375 -1.398438 0.269531 -1.628906 0.34375 -1.796875 C 0.425781 -1.972656 0.535156 -2.097656 0.671875 -2.171875 C 0.816406 -2.242188 0.976562 -2.28125 1.15625 -2.28125 C 1.269531 -2.28125 1.382812 -2.265625 1.5 -2.234375 C 1.613281 -2.203125 1.707031 -2.15625 1.78125 -2.09375 C 1.851562 -2.03125 1.890625 -1.953125 1.890625 -1.859375 C 1.890625 -1.753906 1.859375 -1.679688 1.796875 -1.640625 C 1.734375 -1.609375 1.640625 -1.59375 1.515625 -1.59375 C 1.515625 -1.71875 1.488281 -1.828125 1.4375 -1.921875 C 1.394531 -2.015625 1.300781 -2.0625 1.15625 -2.0625 C 1.050781 -2.0625 0.957031 -2.035156 0.875 -1.984375 C 0.800781 -1.929688 0.742188 -1.832031 0.703125 -1.6875 C 0.660156 -1.550781 0.640625 -1.359375 0.640625 -1.109375 C 0.640625 -0.816406 0.6875 -0.597656 0.78125 -0.453125 C 0.882812 -0.304688 1.046875 -0.234375 1.265625 -0.234375 C 1.390625 -0.234375 1.5 -0.257812 1.59375 -0.3125 C 1.695312 -0.363281 1.769531 -0.429688 1.8125 -0.515625 C 1.863281 -0.484375 1.890625 -0.429688 1.890625 -0.359375 C 1.890625 -0.296875 1.863281 -0.234375 1.8125 -0.171875 C 1.757812 -0.109375 1.679688 -0.0546875 1.578125 -0.015625 C 1.472656 0.0234375 1.34375 0.046875 1.1875 0.046875 Z "/>
</symbol>
<symbol overflow="visible" id="glyph0-5">
<path style="stroke:none;" d="M 0.078125 0 L 0.078125 -0.171875 L 0.109375 -0.171875 C 0.203125 -0.171875 0.28125 -0.1875 0.34375 -0.21875 C 0.414062 -0.257812 0.453125 -0.34375 0.453125 -0.46875 L 0.453125 -2.71875 C 0.453125 -2.832031 0.414062 -2.90625 0.34375 -2.9375 C 0.28125 -2.976562 0.203125 -3 0.109375 -3 L 0.078125 -3 L 0.078125 -3.171875 L 0.84375 -3.171875 L 0.84375 -2.25 C 0.84375 -2.195312 0.835938 -2.144531 0.828125 -2.09375 C 0.828125 -2.039062 0.828125 -1.992188 0.828125 -1.953125 C 0.828125 -1.910156 0.828125 -1.890625 0.828125 -1.890625 L 0.84375 -1.890625 C 0.96875 -2.148438 1.171875 -2.28125 1.453125 -2.28125 C 1.691406 -2.28125 1.875 -2.210938 2 -2.078125 C 2.132812 -1.953125 2.203125 -1.742188 2.203125 -1.453125 L 2.203125 -0.46875 C 2.203125 -0.34375 2.226562 -0.257812 2.28125 -0.21875 C 2.34375 -0.1875 2.421875 -0.171875 2.515625 -0.171875 L 2.53125 -0.171875 L 2.53125 0 L 1.8125 0 L 1.8125 -1.4375 C 1.8125 -1.613281 1.773438 -1.753906 1.703125 -1.859375 C 1.640625 -1.960938 1.519531 -2.015625 1.34375 -2.015625 C 1.175781 -2.015625 1.050781 -1.953125 0.96875 -1.828125 C 0.882812 -1.703125 0.84375 -1.535156 0.84375 -1.328125 L 0.84375 -0.453125 C 0.84375 -0.328125 0.875 -0.25 0.9375 -0.21875 C 1.007812 -0.1875 1.09375 -0.171875 1.1875 -0.171875 L 1.203125 -0.171875 L 1.203125 0 Z "/>
</symbol>
<symbol overflow="visible" id="glyph0-6">
<path style="stroke:none;" d="M 0.59375 -1.6875 C 0.53125 -1.6875 0.472656 -1.707031 0.421875 -1.75 C 0.367188 -1.789062 0.34375 -1.863281 0.34375 -1.96875 C 0.34375 -2.082031 0.367188 -2.15625 0.421875 -2.1875 C 0.472656 -2.226562 0.53125 -2.25 0.59375 -2.25 C 0.664062 -2.25 0.726562 -2.226562 0.78125 -2.1875 C 0.832031 -2.15625 0.859375 -2.082031 0.859375 -1.96875 C 0.859375 -1.863281 0.832031 -1.789062 0.78125 -1.75 C 0.726562 -1.707031 0.664062 -1.6875 0.59375 -1.6875 Z M 0.59375 0.03125 C 0.53125 0.03125 0.472656 0.0078125 0.421875 -0.03125 C 0.367188 -0.0703125 0.34375 -0.144531 0.34375 -0.25 C 0.34375 -0.363281 0.367188 -0.4375 0.421875 -0.46875 C 0.472656 -0.507812 0.53125 -0.53125 0.59375 -0.53125 C 0.664062 -0.53125 0.726562 -0.507812 0.78125 -0.46875 C 0.832031 -0.4375 0.859375 -0.363281 0.859375 -0.25 C 0.859375 -0.144531 0.832031 -0.0703125 0.78125 -0.03125 C 0.726562 0.0078125 0.664062 0.03125 0.59375 0.03125 Z "/>
</symbol>
<symbol overflow="visible" id="glyph0-7">
<path style="stroke:none;" d=""/>
</symbol>
<symbol overflow="visible" id="glyph0-8">
<path style="stroke:none;" d="M 0.15625 0 L 0.15625 -0.171875 L 0.21875 -0.171875 C 0.3125 -0.171875 0.390625 -0.1875 0.453125 -0.21875 C 0.523438 -0.257812 0.5625 -0.34375 0.5625 -0.46875 L 0.5625 -2.5 C 0.5625 -2.632812 0.523438 -2.71875 0.453125 -2.75 C 0.390625 -2.78125 0.3125 -2.796875 0.21875 -2.796875 L 0.15625 -2.796875 L 0.15625 -2.984375 L 1.375 -2.984375 L 1.375 -2.796875 L 1.3125 -2.796875 C 1.21875 -2.796875 1.132812 -2.78125 1.0625 -2.75 C 1 -2.71875 0.96875 -2.632812 0.96875 -2.5 L 0.96875 -0.46875 C 0.96875 -0.34375 1 -0.257812 1.0625 -0.21875 C 1.132812 -0.1875 1.21875 -0.171875 1.3125 -0.171875 L 1.375 -0.171875 L 1.375 0 Z "/>
</symbol>
<symbol overflow="visible" id="glyph0-9">
<path style="stroke:none;" d="M 0.15625 0 L 0.15625 -0.171875 L 0.21875 -0.171875 C 0.300781 -0.171875 0.378906 -0.1875 0.453125 -0.21875 C 0.523438 -0.25 0.5625 -0.328125 0.5625 -0.453125 L 0.5625 -2.515625 C 0.5625 -2.640625 0.523438 -2.71875 0.453125 -2.75 C 0.378906 -2.78125 0.300781 -2.796875 0.21875 -2.796875 L 0.15625 -2.796875 L 0.15625 -2.984375 L 2.265625 -2.984375 L 2.28125 -2.25 L 2.0625 -2.25 L 2.046875 -2.421875 C 2.035156 -2.515625 2 -2.59375 1.9375 -2.65625 C 1.882812 -2.726562 1.789062 -2.765625 1.65625 -2.765625 L 0.96875 -2.765625 L 0.96875 -1.5625 L 1.984375 -1.5625 L 1.984375 -1.359375 L 0.96875 -1.359375 L 0.96875 -0.46875 C 0.96875 -0.34375 1 -0.257812 1.0625 -0.21875 C 1.132812 -0.1875 1.21875 -0.171875 1.3125 -0.171875 L 1.453125 -0.171875 L 1.453125 0 Z "/>
</symbol>
<symbol overflow="visible" id="glyph0-10">
<path style="stroke:none;" d="M 0.15625 0 L 0.15625 -0.171875 L 0.21875 -0.171875 C 0.300781 -0.171875 0.378906 -0.1875 0.453125 -0.21875 C 0.523438 -0.25 0.5625 -0.328125 0.5625 -0.453125 L 0.5625 -2.5 C 0.5625 -2.632812 0.523438 -2.71875 0.453125 -2.75 C 0.390625 -2.78125 0.3125 -2.796875 0.21875 -2.796875 L 0.15625 -2.796875 L 0.15625 -2.984375 L 2.265625 -2.984375 L 2.28125 -2.25 L 2.0625 -2.25 L 2.046875 -2.421875 C 2.035156 -2.515625 2 -2.59375 1.9375 -2.65625 C 1.882812 -2.726562 1.796875 -2.765625 1.671875 -2.765625 L 0.96875 -2.765625 L 0.96875 -1.65625 L 1.984375 -1.65625 L 1.984375 -1.453125 L 0.96875 -1.453125 L 0.96875 -0.203125 L 1.78125 -0.203125 C 1.914062 -0.203125 2.007812 -0.234375 2.0625 -0.296875 C 2.125 -0.367188 2.160156 -0.453125 2.171875 -0.546875 L 2.203125 -0.734375 L 2.421875 -0.734375 L 2.390625 0 Z "/>
</symbol>
<symbol overflow="visible" id="glyph0-11">
<path style="stroke:none;" d="M 0.15625 0 L 0.15625 -0.171875 L 0.21875 -0.171875 C 0.3125 -0.171875 0.390625 -0.1875 0.453125 -0.21875 C 0.523438 -0.257812 0.5625 -0.34375 0.5625 -0.46875 L 0.5625 -2.5 C 0.5625 -2.632812 0.523438 -2.71875 0.453125 -2.75 C 0.390625 -2.78125 0.3125 -2.796875 0.21875 -2.796875 L 0.15625 -2.796875 L 0.15625 -2.984375 L 1.375 -2.984375 L 1.375 -2.796875 L 1.3125 -2.796875 C 1.226562 -2.796875 1.148438 -2.78125 1.078125 -2.75 C 1.003906 -2.71875 0.96875 -2.640625 0.96875 -2.515625 L 0.96875 -0.203125 L 1.796875 -0.203125 C 1.878906 -0.203125 1.945312 -0.222656 2 -0.265625 C 2.050781 -0.304688 2.085938 -0.351562 2.109375 -0.40625 C 2.140625 -0.46875 2.160156 -0.523438 2.171875 -0.578125 L 2.203125 -0.890625 L 2.421875 -0.890625 L 2.390625 0 Z "/>
</symbol>
<symbol overflow="visible" id="glyph0-12">
<path style="stroke:none;" d="M 0.84375 -1.578125 L 0.953125 -2.234375 L 0.3125 -1.84375 L 0.171875 -2.171875 L 0.875 -2.375 L 0.171875 -2.578125 L 0.3125 -2.90625 L 0.953125 -2.5 L 0.84375 -3.171875 L 1.21875 -3.171875 L 1.09375 -2.515625 L 1.75 -2.90625 L 1.890625 -2.578125 L 1.1875 -2.375 L 1.890625 -2.171875 L 1.75 -1.84375 L 1.09375 -2.234375 L 1.21875 -1.578125 Z "/>
</symbol>
</g>
</defs>
<g id="surface32">
<g style="fill:rgb(100%,100%,0%);fill-opacity:1;">
  <use xlink:href="#glyph0-1" x="30" y="24.454102"/>
  <use xlink:href="#glyph0-2" x="34" y="24.454102"/>
  <use xlink:href="#glyph0-3" x="36" y="24.454102"/>
  <use xlink:href="#glyph0-4" x="37" y="24.454102"/>
  <use xlink:href="#glyph0-5" x="39" y="24.454102"/>
  <use xlink:href="#glyph0-6" x="42" y="24.454102"/>
  <use xlink:href="#glyph0-7" x="43" y="24.454102"/>
  <use xlink:href="#glyph0-8" x="44" y="24.454102"/>
  <use xlink:href="#glyph0-7" x="46" y="24.454102"/>
  <use xlink:href="#glyph0-9" x="47" y="24.454102"/>
  <use xlink:href="#glyph0-10" x="49" y="24.454102"/>
  <use xlink:href="#glyph0-10" x="52" y="24.454102"/>
  <use xlink:href="#glyph0-11" x="55" y="24.454102"/>
  <use xlink:href="#glyph0-7" x="58" y="24.454102"/>
  <use xlink:href="#glyph0-12" x="59" y="24.454102"/>
</g>
</g>
</svg>
