<?xml version="1.0" encoding="UTF-8"?>
<svg xmlns="http://www.w3.org/2000/svg" xmlns:xlink="http://www.w3.org/1999/xlink" width="1920pt" height="1080pt" viewBox="0 0 1920 1080" version="1.1">
<defs>
<g>
<symbol overflow="visible" id="glyph0-0">
<path style="stroke:none;" d="M 0.9375 0 L 0.9375 -7.140625 L 5.046875 -7.140625 L 5.046875 0 Z M 1.453125 -0.515625 L 4.546875 -0.515625 L 4.546875 -6.625 L 1.453125 -6.625 Z "/>
</symbol>
<symbol overflow="visible" id="glyph0-1">
<path style="stroke:none;" d="M 0.359375 0 L 0.359375 -0.40625 L 4.109375 -6.640625 L 1.9375 -6.640625 C 1.644531 -6.640625 1.441406 -6.554688 1.328125 -6.390625 C 1.210938 -6.234375 1.144531 -6.039062 1.125 -5.8125 L 1.0625 -5.390625 L 0.546875 -5.390625 L 0.59375 -7.140625 L 5.34375 -7.140625 L 5.34375 -6.734375 L 1.578125 -0.5 L 4.09375 -0.5 C 4.394531 -0.5 4.601562 -0.578125 4.71875 -0.734375 C 4.832031 -0.898438 4.90625 -1.09375 4.9375 -1.3125 L 4.984375 -1.75 L 5.5 -1.75 L 5.453125 0 Z "/>
</symbol>
<symbol overflow="visible" id="glyph0-2">
<path style="stroke:none;" d="M 1.609375 -6.359375 C 1.453125 -6.359375 1.316406 -6.40625 1.203125 -6.5 C 1.097656 -6.59375 1.046875 -6.753906 1.046875 -6.984375 C 1.046875 -7.210938 1.097656 -7.367188 1.203125 -7.453125 C 1.316406 -7.546875 1.453125 -7.59375 1.609375 -7.59375 C 1.765625 -7.59375 1.898438 -7.546875 2.015625 -7.453125 C 2.128906 -7.367188 2.1875 -7.210938 2.1875 -6.984375 C 2.1875 -6.753906 2.128906 -6.59375 2.015625 -6.5 C 1.898438 -6.40625 1.765625 -6.359375 1.609375 -6.359375 Z M 0.234375 0 L 0.234375 -0.421875 L 0.359375 -0.421875 C 0.578125 -0.421875 0.769531 -0.457031 0.9375 -0.53125 C 1.101562 -0.613281 1.1875 -0.800781 1.1875 -1.09375 L 1.1875 -4.265625 C 1.1875 -4.554688 1.101562 -4.738281 0.9375 -4.8125 C 0.769531 -4.894531 0.578125 -4.9375 0.359375 -4.9375 L 0.328125 -4.9375 L 0.328125 -5.359375 L 2.125 -5.359375 L 2.125 -1.140625 C 2.125 -0.828125 2.203125 -0.628906 2.359375 -0.546875 C 2.515625 -0.460938 2.707031 -0.421875 2.9375 -0.421875 L 3.0625 -0.421875 L 3.0625 0 Z "/>
</symbol>
<symbol overflow="visible" id="glyph0-3">
<path style="stroke:none;" d="M 0.1875 2.40625 L 0.1875 1.984375 L 0.265625 1.984375 C 0.484375 1.984375 0.671875 1.941406 0.828125 1.859375 C 0.992188 1.773438 1.078125 1.578125 1.078125 1.265625 L 1.078125 -4.265625 C 1.078125 -4.554688 0.992188 -4.738281 0.828125 -4.8125 C 0.671875 -4.894531 0.484375 -4.9375 0.265625 -4.9375 L 0.125 -4.9375 L 0.125 -5.359375 L 1.875 -5.359375 L 1.984375 -4.453125 L 2.015625 -4.453125 C 2.171875 -4.765625 2.367188 -5.007812 2.609375 -5.1875 C 2.847656 -5.363281 3.160156 -5.453125 3.546875 -5.453125 C 4.210938 -5.453125 4.71875 -5.226562 5.0625 -4.78125 C 5.414062 -4.34375 5.59375 -3.644531 5.59375 -2.6875 C 5.59375 -1.71875 5.414062 -1.007812 5.0625 -0.5625 C 4.71875 -0.125 4.210938 0.09375 3.546875 0.09375 C 3.160156 0.09375 2.84375 0.015625 2.59375 -0.140625 C 2.351562 -0.304688 2.160156 -0.519531 2.015625 -0.78125 L 1.984375 -0.78125 C 1.992188 -0.582031 2 -0.375 2 -0.15625 C 2.007812 0.0507812 2.015625 0.21875 2.015625 0.34375 L 2.015625 1.3125 C 2.015625 1.601562 2.097656 1.785156 2.265625 1.859375 C 2.429688 1.941406 2.625 1.984375 2.84375 1.984375 L 2.875 1.984375 L 2.875 2.40625 Z M 3.390625 -0.546875 C 3.828125 -0.546875 4.140625 -0.726562 4.328125 -1.09375 C 4.523438 -1.46875 4.625 -2.003906 4.625 -2.703125 C 4.625 -3.410156 4.523438 -3.9375 4.328125 -4.28125 C 4.140625 -4.632812 3.820312 -4.8125 3.375 -4.8125 C 2.851562 -4.8125 2.492188 -4.632812 2.296875 -4.28125 C 2.109375 -3.9375 2.015625 -3.40625 2.015625 -2.6875 C 2.015625 -2 2.109375 -1.46875 2.296875 -1.09375 C 2.492188 -0.726562 2.859375 -0.546875 3.390625 -0.546875 Z "/>
</symbol>
<symbol overflow="visible" id="glyph0-4">
<path style="stroke:none;" d="M 0.265625 0 L 0.265625 -0.421875 L 0.40625 -0.421875 C 0.625 -0.421875 0.8125 -0.460938 0.96875 -0.546875 C 1.132812 -0.628906 1.21875 -0.828125 1.21875 -1.140625 L 1.21875 -4.890625 L 0.3125 -4.890625 L 0.3125 -5.359375 L 1.21875 -5.359375 L 1.21875 -5.859375 C 1.21875 -6.453125 1.375 -6.90625 1.6875 -7.21875 C 2.007812 -7.539062 2.441406 -7.703125 2.984375 -7.703125 C 3.503906 -7.703125 3.867188 -7.632812 4.078125 -7.5 C 4.285156 -7.375 4.390625 -7.207031 4.390625 -7 C 4.390625 -6.820312 4.3125 -6.679688 4.15625 -6.578125 C 4.007812 -6.484375 3.8125 -6.4375 3.5625 -6.4375 C 3.5625 -6.632812 3.515625 -6.816406 3.421875 -6.984375 C 3.335938 -7.148438 3.164062 -7.234375 2.90625 -7.234375 C 2.625 -7.234375 2.425781 -7.125 2.3125 -6.90625 C 2.207031 -6.6875 2.15625 -6.367188 2.15625 -5.953125 L 2.15625 -5.359375 L 3.5625 -5.359375 L 3.5625 -4.890625 L 2.15625 -4.890625 L 2.15625 -1.140625 C 2.15625 -0.828125 2.234375 -0.628906 2.390625 -0.546875 C 2.554688 -0.460938 2.753906 -0.421875 2.984375 -0.421875 L 3.359375 -0.421875 L 3.359375 0 Z "/>
</symbol>
<symbol overflow="visible" id="glyph0-5">
<path style="stroke:none;" d="M 0.875 -4.796875 L 0.5625 -7.140625 L 1.625 -7.140625 L 1.328125 -4.796875 Z "/>
</symbol>
<symbol overflow="visible" id="glyph0-6">
<path style="stroke:none;" d="M 2.09375 0.09375 C 1.59375 0.09375 1.191406 0.00390625 0.890625 -0.171875 C 0.597656 -0.347656 0.453125 -0.609375 0.453125 -0.953125 C 0.453125 -1.140625 0.488281 -1.28125 0.5625 -1.375 C 0.632812 -1.476562 0.71875 -1.550781 0.8125 -1.59375 C 0.90625 -1.632812 0.992188 -1.65625 1.078125 -1.65625 C 1.078125 -1.300781 1.15625 -1 1.3125 -0.75 C 1.46875 -0.5 1.75 -0.375 2.15625 -0.375 C 2.507812 -0.375 2.78125 -0.457031 2.96875 -0.625 C 3.164062 -0.800781 3.265625 -1.023438 3.265625 -1.296875 C 3.265625 -1.460938 3.226562 -1.597656 3.15625 -1.703125 C 3.082031 -1.804688 2.957031 -1.910156 2.78125 -2.015625 C 2.601562 -2.117188 2.351562 -2.238281 2.03125 -2.375 C 1.6875 -2.53125 1.398438 -2.679688 1.171875 -2.828125 C 0.953125 -2.972656 0.785156 -3.140625 0.671875 -3.328125 C 0.566406 -3.515625 0.515625 -3.753906 0.515625 -4.046875 C 0.515625 -4.492188 0.6875 -4.835938 1.03125 -5.078125 C 1.375 -5.328125 1.832031 -5.453125 2.40625 -5.453125 C 2.882812 -5.453125 3.242188 -5.359375 3.484375 -5.171875 C 3.734375 -4.992188 3.859375 -4.78125 3.859375 -4.53125 C 3.859375 -4.351562 3.796875 -4.207031 3.671875 -4.09375 C 3.546875 -3.988281 3.367188 -3.9375 3.140625 -3.9375 C 3.140625 -4.269531 3.066406 -4.523438 2.921875 -4.703125 C 2.785156 -4.890625 2.570312 -4.984375 2.28125 -4.984375 C 1.9375 -4.984375 1.691406 -4.910156 1.546875 -4.765625 C 1.398438 -4.617188 1.328125 -4.425781 1.328125 -4.1875 C 1.328125 -3.9375 1.421875 -3.742188 1.609375 -3.609375 C 1.804688 -3.472656 2.125 -3.3125 2.5625 -3.125 C 2.914062 -2.976562 3.203125 -2.832031 3.421875 -2.6875 C 3.648438 -2.539062 3.8125 -2.367188 3.90625 -2.171875 C 4.007812 -1.984375 4.0625 -1.75 4.0625 -1.46875 C 4.0625 -0.945312 3.878906 -0.554688 3.515625 -0.296875 C 3.160156 -0.0351562 2.6875 0.09375 2.09375 0.09375 Z "/>
</symbol>
<symbol overflow="visible" id="glyph0-7">
<path style="stroke:none;" d=""/>
</symbol>
<symbol overflow="visible" id="glyph0-8">
<path style="stroke:none;" d="M 0.375 0 L 0.375 -0.421875 L 0.515625 -0.421875 C 0.734375 -0.421875 0.921875 -0.460938 1.078125 -0.546875 C 1.242188 -0.628906 1.328125 -0.828125 1.328125 -1.140625 L 1.328125 -6 C 1.328125 -6.3125 1.242188 -6.507812 1.078125 -6.59375 C 0.921875 -6.675781 0.734375 -6.71875 0.515625 -6.71875 L 0.375 -6.71875 L 0.375 -7.140625 L 3.296875 -7.140625 L 3.296875 -6.71875 L 3.15625 -6.71875 C 2.9375 -6.71875 2.742188 -6.675781 2.578125 -6.59375 C 2.421875 -6.519531 2.34375 -6.335938 2.34375 -6.046875 L 2.34375 -0.5 L 4.3125 -0.5 C 4.507812 -0.5 4.671875 -0.539062 4.796875 -0.625 C 4.921875 -0.71875 5.007812 -0.832031 5.0625 -0.96875 C 5.125 -1.113281 5.164062 -1.257812 5.1875 -1.40625 L 5.296875 -2.15625 L 5.8125 -2.15625 L 5.734375 0 Z "/>
</symbol>
<symbol overflow="visible" id="glyph0-9">
<path style="stroke:none;" d="M 2.046875 0.09375 C 1.597656 0.09375 1.226562 -0.0351562 0.9375 -0.296875 C 0.644531 -0.554688 0.5 -0.957031 0.5 -1.5 C 0.5 -2.03125 0.6875 -2.421875 1.0625 -2.671875 C 1.4375 -2.929688 2.007812 -3.070312 2.78125 -3.09375 L 3.609375 -3.125 L 3.609375 -3.734375 C 3.609375 -3.972656 3.585938 -4.179688 3.546875 -4.359375 C 3.503906 -4.546875 3.414062 -4.691406 3.28125 -4.796875 C 3.15625 -4.898438 2.957031 -4.953125 2.6875 -4.953125 C 2.425781 -4.953125 2.226562 -4.90625 2.09375 -4.8125 C 1.96875 -4.726562 1.878906 -4.601562 1.828125 -4.4375 C 1.785156 -4.269531 1.765625 -4.082031 1.765625 -3.875 C 1.484375 -3.875 1.269531 -3.921875 1.125 -4.015625 C 0.988281 -4.109375 0.921875 -4.269531 0.921875 -4.5 C 0.921875 -4.726562 1 -4.910156 1.15625 -5.046875 C 1.320312 -5.191406 1.539062 -5.296875 1.8125 -5.359375 C 2.09375 -5.421875 2.394531 -5.453125 2.71875 -5.453125 C 3.332031 -5.453125 3.789062 -5.320312 4.09375 -5.0625 C 4.394531 -4.8125 4.546875 -4.367188 4.546875 -3.734375 L 4.546875 -1.140625 C 4.546875 -0.859375 4.59375 -0.664062 4.6875 -0.5625 C 4.78125 -0.46875 4.941406 -0.421875 5.171875 -0.421875 L 5.203125 -0.421875 L 5.203125 0 L 3.84375 0 L 3.6875 -0.859375 L 3.609375 -0.859375 C 3.472656 -0.671875 3.335938 -0.503906 3.203125 -0.359375 C 3.066406 -0.222656 2.910156 -0.113281 2.734375 -0.03125 C 2.554688 0.0507812 2.328125 0.09375 2.046875 0.09375 Z M 2.28125 -0.515625 C 2.6875 -0.515625 3.007812 -0.640625 3.25 -0.890625 C 3.488281 -1.140625 3.609375 -1.476562 3.609375 -1.90625 L 3.609375 -2.71875 L 2.96875 -2.6875 C 2.40625 -2.664062 2.015625 -2.550781 1.796875 -2.34375 C 1.578125 -2.144531 1.46875 -1.847656 1.46875 -1.453125 C 1.46875 -0.828125 1.738281 -0.515625 2.28125 -0.515625 Z "/>
</symbol>
<symbol overflow="visible" id="glyph0-10">
<path style="stroke:none;" d="M 0.75 -4.40625 C 0.675781 -4.625 0.585938 -4.765625 0.484375 -4.828125 C 0.378906 -4.898438 0.234375 -4.9375 0.046875 -4.9375 L 0.015625 -4.9375 L 0.015625 -5.359375 L 2.484375 -5.359375 L 2.484375 -4.9375 L 2.34375 -4.9375 C 2.144531 -4.9375 1.992188 -4.90625 1.890625 -4.84375 C 1.796875 -4.789062 1.75 -4.679688 1.75 -4.515625 C 1.75 -4.460938 1.753906 -4.394531 1.765625 -4.3125 C 1.785156 -4.238281 1.804688 -4.164062 1.828125 -4.09375 L 2.296875 -2.40625 C 2.347656 -2.25 2.394531 -2.070312 2.4375 -1.875 C 2.476562 -1.675781 2.519531 -1.488281 2.5625 -1.3125 C 2.601562 -1.132812 2.632812 -0.988281 2.65625 -0.875 L 2.6875 -0.875 C 2.71875 -1.039062 2.769531 -1.257812 2.84375 -1.53125 C 2.914062 -1.800781 3 -2.0625 3.09375 -2.3125 L 4.125 -5.328125 L 4.765625 -5.328125 L 5.765625 -2.375 C 5.816406 -2.207031 5.867188 -2.03125 5.921875 -1.84375 C 5.984375 -1.65625 6.035156 -1.472656 6.078125 -1.296875 C 6.128906 -1.128906 6.164062 -0.988281 6.1875 -0.875 L 6.21875 -0.875 C 6.28125 -1.21875 6.410156 -1.707031 6.609375 -2.34375 L 7.109375 -3.953125 C 7.140625 -4.035156 7.160156 -4.125 7.171875 -4.21875 C 7.191406 -4.320312 7.203125 -4.398438 7.203125 -4.453125 C 7.203125 -4.773438 6.984375 -4.9375 6.546875 -4.9375 L 6.46875 -4.9375 L 6.46875 -5.359375 L 8.609375 -5.359375 L 8.609375 -4.9375 L 8.484375 -4.9375 C 8.285156 -4.9375 8.132812 -4.890625 8.03125 -4.796875 C 7.925781 -4.703125 7.828125 -4.488281 7.734375 -4.15625 L 6.4375 0 L 5.640625 0 L 4.265625 -4.1875 L 2.84375 0 L 2.0625 0 Z "/>
</symbol>
</g>
</defs>
<g id="surface1">
<g style="fill:rgb(100%,100%,100%);fill-opacity:1;">
  <use xlink:href="#glyph0-1" x="30" y="30.69043"/>
  <use xlink:href="#glyph0-2" x="36" y="30.69043"/>
  <use xlink:href="#glyph0-3" x="39" y="30.69043"/>
  <use xlink:href="#glyph0-4" x="45" y="30.69043"/>
  <use xlink:href="#glyph0-5" x="49" y="30.69043"/>
  <use xlink:href="#glyph0-6" x="51" y="30.69043"/>
  <use xlink:href="#glyph0-7" x="56" y="30.69043"/>
  <use xlink:href="#glyph0-8" x="59" y="30.69043"/>
  <use xlink:href="#glyph0-9" x="65" y="30.69043"/>
  <use xlink:href="#glyph0-10" x="71" y="30.69043"/>
</g>
</g>
</svg>
