<?xml version="1.0" encoding="UTF-8"?>
<svg xmlns="http://www.w3.org/2000/svg" xmlns:xlink="http://www.w3.org/1999/xlink" width="1920pt" height="1080pt" viewBox="0 0 1920 1080" version="1.1">
<defs>
<g>
<symbol overflow="visible" id="glyph0-0">
<path style="stroke:none;" d="M 0.828125 0 L 0.828125 -6.34375 L 4.484375 -6.34375 L 4.484375 0 Z M 1.296875 -0.453125 L 4.03125 -0.453125 L 4.03125 -5.890625 L 1.296875 -5.890625 Z "/>
</symbol>
<symbol overflow="visible" id="glyph0-1">
<path style="stroke:none;" d="M 2.515625 0.09375 C 2.117188 0.09375 1.769531 0.0078125 1.46875 -0.15625 C 1.164062 -0.320312 0.925781 -0.582031 0.75 -0.9375 C 0.570312 -1.300781 0.484375 -1.773438 0.484375 -2.359375 C 0.484375 -2.992188 0.570312 -3.492188 0.75 -3.859375 C 0.925781 -4.222656 1.160156 -4.476562 1.453125 -4.625 C 1.753906 -4.78125 2.09375 -4.859375 2.46875 -4.859375 C 2.71875 -4.859375 2.960938 -4.820312 3.203125 -4.75 C 3.441406 -4.6875 3.632812 -4.585938 3.78125 -4.453125 C 3.9375 -4.328125 4.015625 -4.160156 4.015625 -3.953125 C 4.015625 -3.742188 3.945312 -3.597656 3.8125 -3.515625 C 3.6875 -3.429688 3.492188 -3.390625 3.234375 -3.390625 C 3.234375 -3.671875 3.179688 -3.910156 3.078125 -4.109375 C 2.972656 -4.304688 2.769531 -4.40625 2.46875 -4.40625 C 2.25 -4.40625 2.050781 -4.34375 1.875 -4.21875 C 1.707031 -4.101562 1.578125 -3.898438 1.484375 -3.609375 C 1.390625 -3.316406 1.34375 -2.898438 1.34375 -2.359375 C 1.34375 -1.734375 1.445312 -1.265625 1.65625 -0.953125 C 1.875 -0.640625 2.21875 -0.484375 2.6875 -0.484375 C 2.96875 -0.484375 3.207031 -0.539062 3.40625 -0.65625 C 3.613281 -0.769531 3.769531 -0.921875 3.875 -1.109375 C 3.976562 -1.023438 4.03125 -0.910156 4.03125 -0.765625 C 4.03125 -0.628906 3.972656 -0.492188 3.859375 -0.359375 C 3.742188 -0.234375 3.570312 -0.125 3.34375 -0.03125 C 3.125 0.0507812 2.847656 0.09375 2.515625 0.09375 Z "/>
</symbol>
<symbol overflow="visible" id="glyph0-2">
<path style="stroke:none;" d="M 1.828125 0.09375 C 1.429688 0.09375 1.097656 -0.0195312 0.828125 -0.25 C 0.566406 -0.488281 0.4375 -0.847656 0.4375 -1.328125 C 0.4375 -1.804688 0.601562 -2.15625 0.9375 -2.375 C 1.28125 -2.601562 1.789062 -2.726562 2.46875 -2.75 L 3.203125 -2.78125 L 3.203125 -3.3125 C 3.203125 -3.53125 3.1875 -3.71875 3.15625 -3.875 C 3.125 -4.039062 3.046875 -4.171875 2.921875 -4.265625 C 2.804688 -4.359375 2.625 -4.40625 2.375 -4.40625 C 2.15625 -4.40625 1.984375 -4.363281 1.859375 -4.28125 C 1.742188 -4.195312 1.664062 -4.082031 1.625 -3.9375 C 1.59375 -3.789062 1.578125 -3.625 1.578125 -3.4375 C 1.328125 -3.4375 1.132812 -3.476562 1 -3.5625 C 0.875 -3.65625 0.8125 -3.800781 0.8125 -4 C 0.8125 -4.207031 0.882812 -4.375 1.03125 -4.5 C 1.175781 -4.625 1.367188 -4.710938 1.609375 -4.765625 C 1.859375 -4.828125 2.128906 -4.859375 2.421875 -4.859375 C 2.960938 -4.859375 3.367188 -4.738281 3.640625 -4.5 C 3.910156 -4.269531 4.046875 -3.875 4.046875 -3.3125 L 4.046875 -1.015625 C 4.046875 -0.765625 4.085938 -0.59375 4.171875 -0.5 C 4.253906 -0.414062 4.394531 -0.375 4.59375 -0.375 L 4.625 -0.375 L 4.625 0 L 3.421875 0 L 3.28125 -0.765625 L 3.203125 -0.765625 C 3.078125 -0.597656 2.957031 -0.453125 2.84375 -0.328125 C 2.726562 -0.203125 2.59375 -0.0976562 2.4375 -0.015625 C 2.28125 0.0546875 2.078125 0.09375 1.828125 0.09375 Z M 2.03125 -0.46875 C 2.382812 -0.46875 2.664062 -0.578125 2.875 -0.796875 C 3.09375 -1.015625 3.203125 -1.316406 3.203125 -1.703125 L 3.203125 -2.421875 L 2.640625 -2.390625 C 2.140625 -2.367188 1.789062 -2.265625 1.59375 -2.078125 C 1.40625 -1.898438 1.3125 -1.640625 1.3125 -1.296875 C 1.3125 -0.742188 1.550781 -0.46875 2.03125 -0.46875 Z "/>
</symbol>
<symbol overflow="visible" id="glyph0-3">
<path style="stroke:none;" d="M 2.140625 0.09375 C 1.679688 0.09375 1.347656 -0.0078125 1.140625 -0.21875 C 0.941406 -0.425781 0.84375 -0.785156 0.84375 -1.296875 L 0.84375 -4.265625 L 0.171875 -4.265625 L 0.171875 -4.609375 C 0.273438 -4.609375 0.390625 -4.628906 0.515625 -4.671875 C 0.648438 -4.722656 0.765625 -4.800781 0.859375 -4.90625 C 0.960938 -5.007812 1.046875 -5.132812 1.109375 -5.28125 C 1.171875 -5.4375 1.222656 -5.628906 1.265625 -5.859375 L 1.6875 -5.859375 L 1.6875 -4.765625 L 2.84375 -4.765625 L 2.84375 -4.265625 L 1.6875 -4.265625 L 1.6875 -1.265625 C 1.6875 -0.960938 1.742188 -0.738281 1.859375 -0.59375 C 1.984375 -0.445312 2.148438 -0.375 2.359375 -0.375 C 2.460938 -0.375 2.554688 -0.378906 2.640625 -0.390625 C 2.734375 -0.410156 2.828125 -0.425781 2.921875 -0.4375 L 2.921875 -0.046875 C 2.847656 -0.015625 2.734375 0.015625 2.578125 0.046875 C 2.421875 0.078125 2.273438 0.09375 2.140625 0.09375 Z "/>
</symbol>
</g>
</defs>
<g id="surface11">
<g style="fill:rgb(100%,100%,100%);fill-opacity:1;">
  <use xlink:href="#glyph0-1" x="30" y="29.50293"/>
  <use xlink:href="#glyph0-2" x="34" y="29.50293"/>
  <use xlink:href="#glyph0-3" x="39" y="29.50293"/>
</g>
</g>
</svg>
